<svg width="56" height="56" viewBox="0 0 56 56" fill="none" xmlns="http://www.w3.org/2000/svg">
<g clip-path="url(#clip0_35_224)">
<path fill-rule="evenodd" clip-rule="evenodd" d="M52.5 28C52.5 21.5022 49.9188 15.2705 45.3241 10.6759C40.7295 6.08124 34.4978 3.49999 28 3.49999C21.5022 3.49999 15.2705 6.08123 10.6759 10.6759C6.08123 15.2705 3.49998 21.5022 3.49998 28C3.49998 34.4978 6.08123 40.7295 10.6759 45.3241C15.2705 49.9188 21.5022 52.5 28 52.5C34.4978 52.5 40.7295 49.9188 45.3241 45.3241C49.9188 40.7295 52.5 34.4978 52.5 28ZM-1.66256e-05 28C-1.59764e-05 20.5739 2.94998 13.452 8.201 8.201C13.452 2.94998 20.5739 -1.07264e-05 28 -1.00772e-05C35.4261 -9.42803e-06 42.548 2.94998 47.799 8.201C53.05 13.452 56 20.5739 56 28C56 35.4261 53.05 42.548 47.799 47.799C42.548 53.05 35.4261 56 28 56C20.5739 56 13.452 53.05 8.20099 47.799C2.94998 42.548 -1.72749e-05 35.4261 -1.66256e-05 28ZM26.25 15.75C26.25 15.2859 26.4344 14.8407 26.7626 14.5126C27.0907 14.1844 27.5359 14 28 14C28.4641 14 28.9092 14.1844 29.2374 14.5126C29.5656 14.8407 29.75 15.2859 29.75 15.75L29.75 36.0255L37.261 28.511C37.5896 28.1824 38.0353 27.9978 38.5 27.9978C38.9647 27.9978 39.4104 28.1824 39.739 28.511C40.0676 28.8396 40.2522 29.2853 40.2522 29.75C40.2522 30.2147 40.0676 30.6604 39.739 30.989L29.239 41.489C29.0764 41.652 28.8833 41.7813 28.6707 41.8695C28.4581 41.9577 28.2302 42.0031 28 42.0031C27.7698 42.0031 27.5419 41.9577 27.3293 41.8695C27.1167 41.7813 26.9236 41.652 26.761 41.489L16.261 30.989C15.9324 30.6604 15.7478 30.2147 15.7478 29.75C15.7478 29.2853 15.9324 28.8396 16.261 28.511C16.5896 28.1824 17.0353 27.9978 17.5 27.9978C17.9647 27.9978 18.4104 28.1824 18.739 28.511L26.25 36.0255L26.25 15.75Z" fill="#00AAC4"/>
</g>
<defs>
<clipPath id="clip0_35_224">
<rect width="56" height="56" fill="white" transform="translate(56 56) rotate(-180)"/>
</clipPath>
</defs>
</svg>
